<svg xmlns="http://www.w3.org/2000/svg" width="1362" height="1100" viewBox="0 0 1362 1100">
<g transform="translate(635.6,540.0)">
<polyline points="-545.6,240.0 0.0,-75.0 636.5,292.5" fill="none" stroke="#ccd0d8" stroke-width="0.75" stroke-dasharray="1,3.5" opacity="0.45"/>
<polygon points="0.0,-450.0 155.9,-360.0 26.0,-285.0 -129.9,-375.0" fill="#fdfdfc" fill-opacity="0.9" stroke="#ccd0d8" stroke-width="1.0"/>
<polygon points="155.9,90.0 26.0,165.0 26.0,-285.0 155.9,-360.0" fill="#fbfbfa" fill-opacity="0.75" stroke="#ccd0d8" stroke-width="1.0"/>
<polygon points="-129.9,75.0 26.0,165.0 26.0,-285.0 -129.9,-375.0" fill="#f7f7f6" fill-opacity="0.6" stroke="#ccd0d8" stroke-width="1.0"/>
<line x1="52.0" y1="30.0" x2="52.0" y2="-420.0" stroke="#ccd0d8" stroke-width="0.55" opacity="0.6"/>
<line x1="103.9" y1="60.0" x2="103.9" y2="-390.0" stroke="#ccd0d8" stroke-width="0.55" opacity="0.6"/>
<line x1="0.0" y1="-64.3" x2="155.9" y2="25.7" stroke="#ccd0d8" stroke-width="0.55" opacity="0.6"/>
<line x1="0.0" y1="-128.6" x2="155.9" y2="-38.6" stroke="#ccd0d8" stroke-width="0.55" opacity="0.6"/>
<line x1="0.0" y1="-192.9" x2="155.9" y2="-102.9" stroke="#ccd0d8" stroke-width="0.55" opacity="0.6"/>
<line x1="0.0" y1="-257.1" x2="155.9" y2="-167.1" stroke="#ccd0d8" stroke-width="0.55" opacity="0.6"/>
<line x1="0.0" y1="-321.4" x2="155.9" y2="-231.4" stroke="#ccd0d8" stroke-width="0.55" opacity="0.6"/>
<line x1="0.0" y1="-385.7" x2="155.9" y2="-295.7" stroke="#ccd0d8" stroke-width="0.55" opacity="0.6"/>
<line x1="90.9" y1="127.5" x2="90.9" y2="-322.5" stroke="#ccd0d8" stroke-width="0.55" opacity="0.5"/>
<line x1="155.9" y1="25.7" x2="26.0" y2="100.7" stroke="#ccd0d8" stroke-width="0.55" opacity="0.5"/>
<line x1="155.9" y1="-38.6" x2="26.0" y2="36.4" stroke="#ccd0d8" stroke-width="0.55" opacity="0.5"/>
<line x1="155.9" y1="-102.9" x2="26.0" y2="-27.9" stroke="#ccd0d8" stroke-width="0.55" opacity="0.5"/>
<line x1="155.9" y1="-167.1" x2="26.0" y2="-92.1" stroke="#ccd0d8" stroke-width="0.55" opacity="0.5"/>
<line x1="155.9" y1="-231.4" x2="26.0" y2="-156.4" stroke="#ccd0d8" stroke-width="0.55" opacity="0.5"/>
<line x1="155.9" y1="-295.7" x2="26.0" y2="-220.7" stroke="#ccd0d8" stroke-width="0.55" opacity="0.5"/>
<polygon points="166.3,-144.0 348.1,-39.0 218.2,36.0 36.4,-69.0" fill="#fdfdfc" fill-opacity="0.9" stroke="#ccd0d8" stroke-width="1.0"/>
<polygon points="348.1,201.0 218.2,276.0 218.2,36.0 348.1,-39.0" fill="#fbfbfa" fill-opacity="0.75" stroke="#ccd0d8" stroke-width="1.0"/>
<polygon points="36.4,171.0 218.2,276.0 218.2,36.0 36.4,-69.0" fill="#f7f7f6" fill-opacity="0.6" stroke="#ccd0d8" stroke-width="1.0"/>
<line x1="226.9" y1="131.0" x2="226.9" y2="-109.0" stroke="#ccd0d8" stroke-width="0.55" opacity="0.6"/>
<line x1="287.5" y1="166.0" x2="287.5" y2="-74.0" stroke="#ccd0d8" stroke-width="0.55" opacity="0.6"/>
<line x1="166.3" y1="36.0" x2="348.1" y2="141.0" stroke="#ccd0d8" stroke-width="0.55" opacity="0.6"/>
<line x1="166.3" y1="-24.0" x2="348.1" y2="81.0" stroke="#ccd0d8" stroke-width="0.55" opacity="0.6"/>
<line x1="166.3" y1="-84.0" x2="348.1" y2="21.0" stroke="#ccd0d8" stroke-width="0.55" opacity="0.6"/>
<line x1="283.2" y1="238.5" x2="283.2" y2="-1.5" stroke="#ccd0d8" stroke-width="0.55" opacity="0.5"/>
<line x1="348.1" y1="141.0" x2="218.2" y2="216.0" stroke="#ccd0d8" stroke-width="0.55" opacity="0.5"/>
<line x1="348.1" y1="81.0" x2="218.2" y2="156.0" stroke="#ccd0d8" stroke-width="0.55" opacity="0.5"/>
<line x1="348.1" y1="21.0" x2="218.2" y2="96.0" stroke="#ccd0d8" stroke-width="0.55" opacity="0.5"/>
<polygon points="-140.3,-39.0 207.8,162.0 65.0,244.5 -283.2,43.5" fill="#fdfdfc" fill-opacity="0.9" stroke="#ccd0d8" stroke-width="1.0"/>
<polygon points="207.8,282.0 65.0,364.5 65.0,244.5 207.8,162.0" fill="#fbfbfa" fill-opacity="0.75" stroke="#ccd0d8" stroke-width="1.0"/>
<polygon points="-283.2,163.5 65.0,364.5 65.0,244.5 -283.2,43.5" fill="#f7f7f6" fill-opacity="0.6" stroke="#ccd0d8" stroke-width="1.0"/>
<line x1="-70.7" y1="121.2" x2="-70.7" y2="1.2" stroke="#ccd0d8" stroke-width="0.55" opacity="0.6"/>
<line x1="-1.0" y1="161.4" x2="-1.0" y2="41.4" stroke="#ccd0d8" stroke-width="0.55" opacity="0.6"/>
<line x1="68.6" y1="201.6" x2="68.6" y2="81.6" stroke="#ccd0d8" stroke-width="0.55" opacity="0.6"/>
<line x1="138.2" y1="241.8" x2="138.2" y2="121.8" stroke="#ccd0d8" stroke-width="0.55" opacity="0.6"/>
<line x1="136.4" y1="323.2" x2="136.4" y2="203.2" stroke="#ccd0d8" stroke-width="0.55" opacity="0.5"/>
<polygon points="233.8,-0.0 337.7,60.0 233.8,120.0 129.9,60.0" fill="#fdfdfc" fill-opacity="0.9" stroke="#ccd0d8" stroke-width="1.0"/>
<polygon points="337.7,390.0 233.8,450.0 233.8,120.0 337.7,60.0" fill="#fbfbfa" fill-opacity="0.75" stroke="#ccd0d8" stroke-width="1.0"/>
<polygon points="129.9,390.0 233.8,450.0 233.8,120.0 129.9,60.0" fill="#f7f7f6" fill-opacity="0.6" stroke="#ccd0d8" stroke-width="1.0"/>
<line x1="285.8" y1="360.0" x2="285.8" y2="30.0" stroke="#ccd0d8" stroke-width="0.55" opacity="0.6"/>
<line x1="233.8" y1="264.0" x2="337.7" y2="324.0" stroke="#ccd0d8" stroke-width="0.55" opacity="0.6"/>
<line x1="233.8" y1="198.0" x2="337.7" y2="258.0" stroke="#ccd0d8" stroke-width="0.55" opacity="0.6"/>
<line x1="233.8" y1="132.0" x2="337.7" y2="192.0" stroke="#ccd0d8" stroke-width="0.55" opacity="0.6"/>
<line x1="233.8" y1="66.0" x2="337.7" y2="126.0" stroke="#ccd0d8" stroke-width="0.55" opacity="0.6"/>
<line x1="285.8" y1="420.0" x2="285.8" y2="90.0" stroke="#ccd0d8" stroke-width="0.55" opacity="0.5"/>
<line x1="337.7" y1="324.0" x2="233.8" y2="384.0" stroke="#ccd0d8" stroke-width="0.55" opacity="0.5"/>
<line x1="337.7" y1="258.0" x2="233.8" y2="318.0" stroke="#ccd0d8" stroke-width="0.55" opacity="0.5"/>
<line x1="337.7" y1="192.0" x2="233.8" y2="252.0" stroke="#ccd0d8" stroke-width="0.55" opacity="0.5"/>
<line x1="337.7" y1="126.0" x2="233.8" y2="186.0" stroke="#ccd0d8" stroke-width="0.55" opacity="0.5"/>
<polygon points="-298.8,160.5 -194.9,220.5 -223.4,237.0 -327.4,177.0" fill="#fdfdfc" fill-opacity="0.9" stroke="#ccd0d8" stroke-width="0.8"/>
<polygon points="-194.9,247.5 -223.4,264.0 -223.4,237.0 -194.9,220.5" fill="#fbfbfa" fill-opacity="0.75" stroke="#ccd0d8" stroke-width="0.8"/>
<polygon points="-327.4,204.0 -223.4,264.0 -223.4,237.0 -327.4,177.0" fill="#f7f7f6" fill-opacity="0.6" stroke="#ccd0d8" stroke-width="0.8"/>
<polygon points="111.7,385.5 189.7,430.5 163.7,445.5 85.7,400.5" fill="#fdfdfc" fill-opacity="0.9" stroke="#ccd0d8" stroke-width="0.8"/>
<polygon points="189.7,454.5 163.7,469.5 163.7,445.5 189.7,430.5" fill="#fbfbfa" fill-opacity="0.75" stroke="#ccd0d8" stroke-width="0.8"/>
<polygon points="85.7,424.5 163.7,469.5 163.7,445.5 85.7,400.5" fill="#f7f7f6" fill-opacity="0.6" stroke="#ccd0d8" stroke-width="0.8"/>
<line x1="454.7" y1="322.5" x2="454.7" y2="317.0" stroke="#ccd0d8" stroke-width="1"/>
<circle cx="454.7" cy="310.5" r="6.5" fill="#fdfdfc" fill-opacity="0.7" stroke="#ccd0d8" stroke-width="1"/>
<line x1="-311.8" y1="240.0" x2="-311.8" y2="234.5" stroke="#ccd0d8" stroke-width="1"/>
<circle cx="-311.8" cy="228.0" r="6.5" fill="#fdfdfc" fill-opacity="0.7" stroke="#ccd0d8" stroke-width="1"/>
<line x1="148.1" y1="469.5" x2="148.1" y2="464.0" stroke="#ccd0d8" stroke-width="1"/>
<circle cx="148.1" cy="457.5" r="6.5" fill="#fdfdfc" fill-opacity="0.7" stroke="#ccd0d8" stroke-width="1"/>
<line x1="-135.1" y1="318.0" x2="-135.1" y2="312.5" stroke="#ccd0d8" stroke-width="1"/>
<circle cx="-135.1" cy="306.0" r="6.5" fill="#fdfdfc" fill-opacity="0.7" stroke="#ccd0d8" stroke-width="1"/>
</g>
</svg>